<svg xmlns="http://www.w3.org/2000/svg" viewBox="0 0 700 700" role="img" aria-labelledby="title">
  <title id="title">Meaningful Plushies dinosaur plush</title>
  <rect width="700" height="700" fill="#ffffff"/>
  <g transform="translate(136 78)">
    <ellipse cx="214" cy="330" rx="178" ry="198" fill="#8fd4bd"/>
    <circle cx="166" cy="232" r="108" fill="#8fd4bd"/>
    <circle cx="262" cy="232" r="108" fill="#8fd4bd"/>
    <path d="M138 146l-32-78 76 36M290 146l38-78-80 36" fill="#f4bd63"/>
    <circle cx="168" cy="225" r="14" fill="#2d4652"/>
    <circle cx="260" cy="225" r="14" fill="#2d4652"/>
    <path d="M188 280c20 18 48 18 68 0" fill="none" stroke="#2d4652" stroke-width="12" stroke-linecap="round"/>
    <ellipse cx="214" cy="378" rx="88" ry="102" fill="#eff9fe"/>
    <path d="M58 364c-72 30-60 126 18 128M370 364c72 30 60 126-18 128" fill="none" stroke="#8fd4bd" stroke-width="54" stroke-linecap="round"/>
  </g>
</svg>
